<svg width="51" height="39" viewBox="0 0 51 39" fill="none" xmlns="http://www.w3.org/2000/svg" className='frame563'>
          <rect x="8.66602" y="7.11475" width="41.339" height="29.6805" rx="4.5" fill="#004078" stroke="#004078"/>
          <path d="M27.0149 29.659C27.4417 29.659 27.7876 29.3111 27.7876 28.8819C27.7876 28.4527 27.4417 28.1047 27.0149 28.1047C26.5881 28.1047 26.2422 28.4527 26.2422 28.8819C26.2422 29.3111 26.5881 29.659 27.0149 29.659Z" stroke="white" stroke-linecap="round" stroke-linejoin="round"/>
          <path d="M35.5149 29.659C35.9417 29.659 36.2876 29.3111 36.2876 28.8819C36.2876 28.4527 35.9417 28.1047 35.5149 28.1047C35.0881 28.1047 34.7422 28.4527 34.7422 28.8819C34.7422 29.3111 35.0881 29.659 35.5149 29.659Z" stroke="white" stroke-linecap="round" stroke-linejoin="round"/>
          <path d="M20.834 13.3391H23.9249L25.9958 23.7451C26.0665 24.1029 26.26 24.4243 26.5425 24.653C26.8251 24.8817 27.1786 25.0032 27.5413 24.9963H35.0522C35.4148 25.0032 35.7683 24.8817 36.0509 24.653C36.3334 24.4243 36.527 24.1029 36.5976 23.7451L37.834 17.2248H24.6976" stroke="white" stroke-linecap="round" stroke-linejoin="round"/>
        </svg>